<svg width="800" height="800" viewBox="0 0 800 800" fill="none" xmlns="http://www.w3.org/2000/svg">
<path d="M663.667 550.333C708.177 499.455 732.904 434.265 733.334 366.667C733.334 200 583.667 66.6666 400 66.6666C216.334 66.6666 66.667 200 66.667 366.667C66.667 533.333 216.334 666.667 400 666.667C433.807 666.786 467.465 662.186 500 653L653 729.667C657.203 731.949 661.886 733.206 666.667 733.333C674.186 733.29 681.469 730.705 687.334 726C692.205 722.094 695.881 716.899 697.944 711.005C700.007 705.112 700.373 698.758 699 692.667L663.667 550.333Z" fill="url(#paint0_linear_2505_3689)"/>
<path d="M394.384 393.977L445.678 393.99V448.079H384.067C340.667 448.079 305.488 412.897 305.488 369.5C305.488 326.103 340.667 290.921 384.067 290.921H499.837L569.339 223H376.5C295.592 223 230 288.589 230 369.5C230 450.408 295.592 516 376.5 516H450.457H519.619H519.624V338.276H519.619H451.381L394.384 393.977Z" fill="white"/>
<defs>
<linearGradient id="paint0_linear_2505_3689" x1="-753" y1="-828.5" x2="733" y2="762" gradientUnits="userSpaceOnUse">
<stop stop-color="#FFDBD8"/>
<stop offset="1" stop-color="#EE3627"/>
</linearGradient>
</defs>
</svg>
